/* XPM */
static char *bf742bc9781541e2aa033257c336ac6axtyXgSefnkb6GYbP[] = {
/* columns rows colors chars-per-pixel */
"64 64 256 2 ",
"   c #010201",
".  c #0A0302",
"X  c #010B01",
"o  c #03030A",
"O  c #0C0C0C",
"+  c #090A07",
"@  c #130809",
"#  c #011301",
"$  c #021D01",
"%  c #0A1709",
"&  c #151609",
"*  c #080715",
"=  c #0A1714",
"-  c #171717",
";  c #150C19",
":  c #260405",
">  c #390604",
",  c #311413",
"<  c #012401",
"1  c #082906",
"2  c #073506",
"3  c #173608",
"4  c #172716",
"5  c #183718",
"6  c #102910",
"7  c #23261B",
"8  c #25391A",
"9  c #323A14",
"0  c #130E28",
"q  c #27192A",
"w  c #272727",
"e  c #36372B",
"r  c #373935",
"t  c #2E302E",
"y  c #1B2F24",
"u  c #470803",
"i  c #561906",
"p  c #50110A",
"a  c #6A1902",
"s  c #562611",
"d  c #792704",
"f  c #702E0D",
"g  c #51352F",
"h  c #6C372D",
"j  c #19470F",
"k  c #2E4818",
"l  c #2D4624",
"z  c #3B4737",
"x  c #364E2D",
"c  c #245321",
"v  c #42483B",
"b  c #4A5237",
"n  c #744831",
"m  c #535F28",
"M  c #021649",
"N  c #363B49",
"B  c #031878",
"V  c #04116B",
"C  c #0D2B72",
"Z  c #1D2752",
"A  c #5A3A4B",
"S  c #3E4645",
"D  c #1C4A77",
"F  c #484948",
"G  c #54574C",
"H  c #585756",
"J  c #4F4F4E",
"K  c #6F524F",
"L  c #5A6556",
"P  c #516D47",
"I  c #65665C",
"U  c #677355",
"Y  c #55536A",
"T  c #6A596A",
"R  c #5D6567",
"E  c #686866",
"W  c #6A7769",
"Q  c #76776B",
"!  c #6B7574",
"~  c #787777",
"^  c #6D6A72",
"/  c #821E06",
"(  c #862904",
")  c #873604",
"_  c #993404",
"`  c #943412",
"'  c #A63A06",
"]  c #AE3506",
"[  c #8D3D24",
"{  c #9A4707",
"}  c #924C14",
"|  c #A94405",
" . c #B04F0F",
".. c #8B4F2D",
"X. c #A6532E",
"o. c #9B6936",
"O. c #B06A30",
"+. c #AD6711",
"@. c #C65008",
"#. c #C9722F",
"$. c #D26C22",
"%. c #8A5A4D",
"&. c #95694E",
"*. c #AC734E",
"=. c #8F7772",
"-. c #AD7666",
";. c #A05943",
":. c #CF5F34",
">. c #758A6E",
",. c #648659",
"<. c #D88638",
"1. c #B68A53",
"2. c #858978",
"3. c #88937A",
"4. c #B2916F",
"5. c #96986E",
"6. c #CF8F4C",
"7. c #CB916D",
"8. c #E4AD77",
"9. c #D29B64",
"0. c #061686",
"q. c #0F318B",
"w. c #0533AE",
"e. c #2C3A8C",
"r. c #0B4892",
"t. c #0F4FB2",
"y. c #2C50AF",
"u. c #3063B1",
"i. c #2D4E93",
"p. c #74738C",
"a. c #5170B1",
"s. c #6C79AA",
"d. c #4A5D97",
"f. c #0A3BC9",
"g. c #124DCE",
"h. c #2C55CC",
"j. c #326ED0",
"k. c #225EE8",
"l. c #4B68CA",
"z. c #5A71D8",
"x. c #897983",
"c. c #94719B",
"v. c #79848A",
"b. c #708AB3",
"n. c #5188AD",
"m. c #6D8ED1",
"M. c #6299E5",
"N. c #388CBA",
"B. c #888887",
"V. c #968B89",
"C. c #8B9589",
"Z. c #959788",
"A. c #979897",
"S. c #8D9296",
"D. c #A69C9A",
"F. c #AE9490",
"G. c #9AA499",
"H. c #94AA8B",
"J. c #A7A69B",
"K. c #ADB097",
"L. c #9A98A6",
"P. c #8C91AF",
"I. c #A499A6",
"U. c #A893A9",
"Y. c #98AAAB",
"T. c #A6A7A6",
"R. c #B4AAA7",
"E. c #ACB7AA",
"W. c #B5B5AA",
"Q. c #A9A7B7",
"!. c #ABB4B4",
"~. c #B8B9B7",
"^. c #B7AAB5",
"/. c #D2AF91",
"(. c #F0B98D",
"). c #C4BBB8",
"_. c #CFB6AC",
"`. c #E8B8AE",
"'. c #CD9692",
"]. c #BBC5B9",
"[. c #B4C7AD",
"{. c #EBC39A",
"}. c #C5C6BB",
"|. c #D7C7B8",
" X c #CDC8AF",
".X c #EECEAF",
"XX c #DCDDAA",
"oX c #93ADCD",
"OX c #B9BAC4",
"+X c #AEB6D1",
"@X c #95A2E2",
"#X c #C7BAC7",
"$X c #D0B7CD",
"%X c #D4B9D8",
"&X c #B9C6C7",
"*X c #B2C8D2",
"=X c #B5C8EE",
"-X c #CCCCC4",
";X c #CCCCCC",
":X c #C6C6C5",
">X c #D5CAC8",
",X c #C9D4C8",
"<X c #D3D3CC",
"1X c #D7D8C9",
"2X c #CCC9D4",
"3X c #CBD6D5",
"4X c #D4D4D4",
"5X c #DBDAD5",
"6X c #D8D8D9",
"7X c #D5CAD5",
"8X c #E9D9CB",
"9X c #E5DBD7",
"0X c #F7DCD7",
"qX c #EED1C9",
"wX c #D9E6CC",
"eX c #DDE3DC",
"rX c #D9E5D6",
"tX c #DAEED8",
"yX c #FAE7CA",
"uX c #E3E3DC",
"iX c #E8E8D9",
"pX c #F8E8D8",
"aX c #E9F5DD",
"sX c #FCF6D9",
"dX c #E9EACD",
"fX c #D8D9E4",
"gX c #CED5EF",
"hX c #E4DCE5",
"jX c #F0DAE7",
"kX c #DAE6E5",
"lX c #D8EAF6",
"zX c #D5F2F6",
"xX c #E4E3E3",
"cX c #E4EBE3",
"vX c #ECECE4",
"bX c #ECECEB",
"nX c #E7E6E8",
"mX c #F4EDEC",
"MX c #F9EAE7",
"NX c #ECF3EB",
"BX c #EAF5E6",
"VX c #F3F3EC",
"CX c #FDF4EC",
"ZX c #FDFCEC",
"AX c #F9F9E6",
"SX c #E9EAF6",
"DX c #F8EBF8",
"FX c #EAF6F8",
"GX c #F4F4F4",
"HX c #FCF4F4",
"JX c #F5FCF3",
"KX c #FDFDF4",
"LX c #F4F4FC",
"PX c #FDF5FD",
"IX c #F5FDFD",
"UX c #FDFDFC",
/* pixels */
"p.Z M M C V C ^ fXB.C.aXU & 7 - 2.3X*X1X7.) i , 2XGX; B.KX6X~ - FX Xf d f &.jXSX,XH.1 2 < C.KX^.BX*Xu.g.w.u.y.g.b.SXV.; r 1X& X ",
"P.C B V B 0.0.M +XOX3XE.x   + ^ -XkXlXZ.i d ..> ~.nXA.4X5XmX:XV.UX{.} +.d > V.xXUXVXG.8 e . 6XDXBXb.y.j.h.u.t.t.s.IXQ ; q ~ + o ",
"!.C 0.0.V B q.V N lX&XG   -   nXiXS 3X|...) d i H PX;XVXH F HXmX_.o.) _ X.n pX1Xw }.9XI e w B.UX,Xd.w.t.t.t.g.t.d.IX3.  q H   * ",
"H.Z B B M V C B Y *XfX! !.:XA.hXA.r &X|.h a d a H 7XxXmX~ B.nXmX|.*. . .d p dXwXE -XmX9XUXGX~.6XSXm.h.t.t.g.g.r.s.FX3.4 I.).K 0 ",
"K.d.0.V C C B B +XOX3XNX4X6X6XfXkXcX;X_.%.h ..i 7X6X~ W.JXUX:XE AX/.} ` h =.xXrXbXNXGXfXA.4XNXrXLX=Xa.w.g.j.t.w.s.UX[.2XUXAXAX).",
"].d.0.B B V V a.xX;X9X).).w A.LXB.G.vXKXpXqXn h 6X6Xv A.VX<XW.J 3X8X-.s qXPXLXNX!.E IX&X+ -XpX|.jXiXY.l.h.i.q.l.Q.UXkXIX+XOX:XUX",
"!.s.e.e.V B e.=XdX|.=.D.mXV.S.LXz G uXQ E GXR.pXhXxXcXJX}.}.iXKXlXmXAX|.UXp.^ UX-X- fX3X-XZX4.f /.dXIX=X@Xd.s.+XLXNX*Xa.y.m.C b.",
"[.3X*Xv.Y @X*XdXK.b @ b 9XnXSX3X3X-XVX! ! FXGX).nX:XG.G.& % W.W.FX].K.VXSXQ.J 0XMXUXkXNX}./.o.` i =.PXJXLX=XSXaX}.BXoXr.k.M.t.t.",
"Y.S.!.~.xX].].cX..> i u , I uX[.L.LX6XcXJXeX,XB.#X4X= X 6 + o 0 SX!.Z.AX}.UXUXmX6X&X! UX4.u { { X.s _.rXFXUXUX).E IXoXy.z.M.t.h.",
"&XW !.4XOX:X].A.u s s u : =.mXW * OX~.I 2.L NXOX;XNXF 1 # + ; 0 PX4X1XwXe G I J.UX>.r pX.X} $.$.f g ).NXSX!.<XKX5XBXoXe.y.M.i.y.",
"].].eXv.H 4X3X&X4.s > p , A MXW.T.UXC.X %   ! UX-XJXb $ $ = o q fXeXZXU %   - r cXJXKX8X-.d X.( g 0XVX3XUXL % >.DXiXkXoXs.oXb.@X",
"].G.F o J nXT.;XCXK g , : J 6X4XeX].l # % % o hXuX1Xl # 1 % o q fXNX[.# l =     - J.JXMXqX..;.*.=.UXS.t nX1X5 # T dXBXUXgX&XcXUX",
"3X>.= = B.kXS w ].~.;X5X=.xX;XIXE.4 $ 6 $ - * J UX,XP 1 $ % o q SXeXb < 6 6   % @ 6X;XB.HXMXCXdX6XNXE H UXW.# j T ZXZ.T.GXZXdX~.",
",XY.X   ^ fXT.~.kX3X:XeX4XNX>.C.JXW # 5 X # + o :XIXC.$ < %   T LX,Xl 3 # # =   x.SXL.~ LXNX&XS.bXbXFXPX9X).H.6 Y ZXL   E  X9   ",
"3XG.w ~ &X;X].E.~.3XJ v eXvX5XT.vX,X8 1 < 5   = L.UX,Xl 1 # w %XUXrXP < < # O O hXLXkXNXKXKXS.= CXE.H 4XUXiXKXG.! ZXZ.o ; I   - ",
"3XY.S.LX!.~.cX8 - UXA.}.mX~ <XPX-XrX[.$ < 6 # # #X2XIXH.X X B.DXnXaXl < < 4   V.UXeXBXW.g >XPX-XMXJ.4 <X:Xt ).vXIXBXJ * 0 I   o ",
"2X;XwX].4 F 6XI.S.:XrXtX[.% = p.6XUX6X~ -   -   %XfX<XVXG w PX4XDXwXj j X * x.MXrX}.k % & z ;XJXsXZXSXlX3X~ 9XmX5Xv O o O ~ .   ",
"N !.,X}.~.T.6X6XnX~.5XW %   +   w ~ NXUX~.E &   2XnXQ KXR.~.UXQ #XiXx # J 2XfXZX>.1 k m e   w :X8XC.kXIX9XZXMX>XKXJ     - F O @ ",
"0 fX-XD.DX7X:XfXw r JX>.X = - O   + B.GXVXVX~.v R.KX7 ~.GXGX<X& hX;Xz A.LXLXbX[.3 3 m k 8 - = bX3Xt E.AX&.&.n K CX5X- O = ^     ",
"v.bX=.s K A x.nXE ~ IXL       O o   w }.5X-XUXbX4XuXF t SXUXF   4XcX6XUX$XfXBXP j m m k b =   I.IX,XyX.X) d ) f R.UX~ o - E O + ",
"!.1Xs i u : g 9XbX;X~.=   4 & O   O   S.KXQ G ~.SXGX~ H UXLXB.z wXVXVX^ T UX[.j x k k k X o E ~.cXAX/.} ' ' | p V.vXB.o o J     ",
"T.8Xs i f p @ K }.;XJX&XH +     o o   7 <XuXe   *XkXiXMX9X9XmXiXZX1Xz . ).AXx 2 3 3 k X % L.GXCXD.pX`.f $.| ) a =.UXE o H !.    ",
"L.<Xg > u p : , bXT.T.IXNXG.J       -   H UXD.+ Q.mX_.sX4.K CX|.).HXR ^ KX}.U L L v b I 4XUX5XJ.~ iXsX&.o.d ..n V.HXA.F GXLXJ.Q ",
"Q.;XZ.4.n , T U.uX:XC.&X4XxX<X}.~.T.:X).).mXxX~.DX8Xn ....i &.i ).UXFXFXUXAXUXIXUXNXVXUXLXLXUXAXUXLXmXZXyX%.`.KX0XMX9XUXnX3XUXVX",
"kX:XIXkX!.:XbXnXnX~.UXJXVXGXUXUXkXJXIX<XJXNX<XnXwX.XO.d { d } f -._.>XrX[.Z.J.S.:XUXBXE.H.H.3.>.v.IX,XC.UXuXKX]. XKX}./.1.O.9.4.",
"S.xXR v.6X6XT.F 6X].v v v J N S.UXeX:XQ w e W.PX4.f } ' ` ` ` ` f p >XcX& +   R KXiXC.8 < k 8 $ S IX;X  ~.UXGXw H HX-.i [ 7.} f ",
"~ nXF ! IXbX;Xr ,X].    +     - S cXJXVXQ   R.GX`.a ( ( [ X.` ( ( %.CXUXT.t A.LXaX>.8 k x l 5 5 r ].JX!.UX<X5X;X+XDX7.f n `.X.{ ",
"T >X9X;XA.~ eX:X,X[.v x v e G r r E }.1XvX5X5XHX8.o.o.o.*.*.O.O.X.-._.hXUXGXxXnX3.U ,.>.,.,.,.,.W 5XuX9X4X;XVXbXzX1X(.8.{.yX8.<.",
"V.).).;XT.T.fX6X1XK.2.W U G 2.I H H eXuX<XvXuX;X(.6.#.O.*.O.O.<.6.*.yXUX~.}.ZXuXH.U P P b P P b R UX5XuX9X).uX-X*XsX6.{ 1.4.} +.",
"x.0XH D.4XbXT.V.BXC.7 % & +   & o T.UX<XJ & ).UX{._ @.] ] | '  .} n ZXVXG   J.vXJXZ.x 8 l 8 7 4 4 JXA.H PXUXuX- =.sXO.{ O.8.}  .",
"^.9Xe B.5XmXB.t UXG.      .   F ;XVX).t   . ~ UX&.d  .] ] ] '  ...K 9XcXI I v ~.JXUX5X2.I Q Q E C.UXJ.E CXMXxXH $XMX4.7.o.7.4.7.",
"4X}.-XbX<X;XmX^.;X3XT.~.!.T.OXLXGXxX~.W.-X-XHXxX|.{.X.(  .( f u `.PXLXGXcXvXUXPXGXUXUXJXUXUXKXPXbXVXuXUXvXT.VXUXSXFXFXKX.X.XCXUX",
"OXnXK.|.%.h >XLX6XbXHXmXxXvXZXvXeXKXKXAXZXKXJXNXUXpXn ;.-.p -.h $XPXT.;XUX^.J.K.K.K.C.-XKXiX9XW.L.HX/.O.#.d *.F.|.0XR.A.xXUX~.e ",
"OX>Xn f f u > T UXJ.I :XJXvX2.% 7 e 7 7 H UX~.  Y.UX|.sX`.%.MXMXDX<Xw r bX~.6 1 < 6 $ 6 Q 5XKX9X&X9X'.} | _ } p J.CXt   E 5X7   ",
"A.pXo.d ` X.p , <X<X}.KXE.v   X %   o o 6XUXr + *XIXuX9XDX7XUX1XbXUXW   T.UXP 2 2 5 c 6 # w B.LXJXAX4.} $.@._ a 2.PXr   w E   - ",
"S.0X..d _ / p T -XCXiXW X X # 5 #   - Y UXT.G wXIXcXA.w nXUX].8 fXcXVXT.H 5XtX2 c 2 j x z = + S.rXZXsX9.{ ( ( d ).PXr O t F O + ",
"^ UX_.i a p g DX5XR.BX>.$ 6 6 X 4 # * fX2X6XKXwX~.VXQ   fXLX[.% 2XGX<XKXjX9XAX,.< 2 c 1 5 6 r UX>XE pXsX&.o.n s CXnXO   - ^     ",
"* L.PXK %.'.U.PX~ r BX[.6 X 4 % X   H UXGXJX].4 T UXQ Q UXxXKXU I.UXz Q MXMXMXiXz 6 1 5 z 4 t UXR.@ ~.KX8XZXdXuXPXI O   ; R   - ",
"; w 4XhXHXmXnX3XnX;XBX>.5 % 4   o J vXvXrXW # # T UXA.1XcXB.HX-X9XJXl 6 e V.nXiX-XL 5 6 6 % H DXpX9XUXGX-XJ.5XFXCXF +   w J O . ",
"@ ^ nXkX!.S &XrX^.GXeXBXJXL   g OXGXVXW.8 X l X p.hXcXJXA.  ^.PXbXBXP 1 X O F 9XUXVX].x % Z.UXDXpX}.! FX~.  >XUX9XKXr + - H . . ",
"p.UX].}.nXB.}.[.& R.nXT.NX1X2.mXDXvXwXj 2 2 $ % p.PXaXwX8 X t SXnXiXP < 1 %   J kXSXUXAX2.ZX}.^.KXB.- bXMX9XJXG.T.IXk X 0 T + * ",
"Y IXU >.SXnXUX1X~.UXQ.O A.JXUXnX#XJX3.< < j 5   Y UXwX>.$ % - p.UXaXl 2 < y X O ~.NXI.}.BXJX~.Y iX5XUXGXMX|.G.y L.LXm   Y R.& o ",
"p.JX>.X w Q.6X}.fXSXfX4XUXxX3X^ nXwXl 2 < < = o T UX[.3 $ 6 o - 2XBXP 2 # % X   e UXOXA.GX5XUXSXKXbXfXT.KXJ.% X U.UX2.V.PXZX X~ ",
"!.BXU & O L.LX- R hX|.pXqX>XPXfXvX>.X 5 2 6 = = Q.JXH.# 5 $ X   Q.IXK.3 5 4 = +   ~.LXnXKXF._.0X_.HXH S UX}.& % U.VXeXIXSX~.KXUX",
"LX,XK.l   B.LXB.~.ZX&.f i g D.KXVXE.>.6 < 5   F LXNX3.$ j X +   L.IXAX,.1     - 2XFXIX9X-.a d a n KXbX6XIXZ.7 G nXwXlX@Xa.b.b.=X",
"s.bXaX}.~ F fXvXMX/.}  .[ u R.uX-XJXBX6 # % O fXPXJXH.1 6 X =   U.hXZXtX6 + w I PX&XL.ZX8. .$. .h -.HXFX3X2.J.KXHXBXb.t.u.M.i.l.",
"s.gX].}.UX4X4XiX_.f {  ./ s 7X;Xq T.JX].].2.E HX#XKXK.< 1 % O o #XmXJ.AXG.T.T.^.HX! t MX(._  .@.[ i >X4XIXUXVX;X^.JXm.g.j.m.h.j.",
"d.SXG.W.VXnXiX|.0X*.| ' / h ^.zX6XbXcXBXKXVXCXMX~ KXH.$ $ =   + c.UXQ }.KXPXHXHXpXbX3XKX7. . .+.( ..MXnXbXNXGXnXhXcXm.f.j.m.h.u.",
"c.6XkXlX+X! [.JX9X/.o.> K UXvXSX<XW.KX~.N +XIXbXjX6XcXNXV.- J.-X9XMXMXmXUX!.F MXaXA.UXUXPXCX-.s &.`.KXcXoXl.m.vXGXtX+Xu.h.M.D @X",
"$XAX3Xb.y.B q.l.gX8X.XF.7XmXI SX!.r ~.UX~.5XpX_.MXUX5XcXUX-XKXvXGXCXqX|.>XuXA.hXV.e uX2X^ 0XqX/.mXUX=Xl.g.g.g.h.7XAXIXgX@XoXgXFX",
">XaXY.q.f.h.w.w.i.gX1X0XPXW.E Q.GX;XvXiXyXsX7.i K HX~.- xXHX9Xr S.sX-.a *.CXGXIXKX}.UX4XF R.KXpXtXFXn.t.k.j.j.f.P.KXwXnXUXdXAXiX",
"T rX*Xq.w.t.r.r.w.s.FXHXnXKXJXUXbXUX;XsX{.o.) | %.0X9X~.UXnXbX&XkXsX6._ ` n D.IX9X9XGXNXUXUXNXVXLX=Xh.g.k.u.u.t.+XmXv g -XdX2.& ",
"0 nX=Xy.w.w.r.r.g.C *XnX!.3.].Q.PXS.= dX.XO. .' > K KXGX}.t 9XPXJX4.| @.] a _.NXg A.UXA.].T.E bXVXz.g.k.g.t.t.t.@XIXb . - V.& * ",
"q nX+Xy.f.g.g.w.f.i.!.LX;X4 8   ).UXY.ZX{.#.$._ h F.mXJX<X=.:XGXLX{.$.@. .f >XvX~.VXJX8 # # ! UXwXa.t.t.t.k.k.t.@XIXG o ; Q.o 0 ",
"q 4X*Xi.w.w.w.f.q.s.cX5XnXH.# % g kXFXrX4.) d d h DX9Xz 4XUXVXQ Q.sX6._ ( > x.KXGX<XL 1 6 v GX2XUX=Xj.t.g.k.k.g.P.IXL o Y R.O ; ",
"A -X,Xd.a.m.a.a.a.lXwX).nXwXU L g p.FXIXyX(.9.;.x.DX;XW :XKX9XE P.ZX6.} -.7XDXPXJXE.U >.3.J.UXR.$XcXoXM.@Xb.b.m.gXVX2.H $XZXXXQ ",
"UX3XSXFXKXKXGXIXnXNXeXKXCXCXNXIXUXUXxXJ :XGXUXUXDXDXvXKXHXI.SXIXHXGXFXIXPXUX<XG MXSXFXIXBXAXaXZXsXsXsXHXUXUXUXAXAXFXtXDXZXgXIXSX",
"=.GX&XE 2.Q ~ v.yXbXb.m.oX*XKX4.Q V.=.  O H ^ ^ p.HX|.1.7.d } *.>XKXE.Z.D.I -   e B.v.R fXSX@Xm.@XgXLX~.I E B.x.T.UX4.'.9..X1.O.",
": D.6XF   .   Y UX+Xr.w.w.u.LX|.O   O     O O o t HX/.d | ' ( a K KXC.  . .   O +     J UX=Xy.h.w.e.IX:X& & o o B.ZXO.` ) (.+.@.",
": K UX~.& . - fXlXd.r.h.y.C oXFXA.- O - O   + w :XZX/.O.O.O.;.h %.MXKXQ w t t = w - t  XZX*Xu.t.N.D S.UXD.  O F SXyX+.` ..4X4.<.",
"-.=.).vXW.V.B.LXwXY.n.l.M.s.*XaX}.H H J I H H ~ LXdX7.6.<.#.7.'.-.F.ZXVXQ E E F R W C.pXiX+XM.M.M.M.+XnXCXA.H J.UX0X6.7..XSX1.#.",
"s g <X].w   . Y MX+Xq.g.g.q.+XZXE + +   O     + ^ VX.X+.| @.@._ %.qX1Xv       ;     + B.UX@Xh.f.f.y.s.UXW.    ; Y.UX9.( } /.{ @.",
"h g GXT.& - + q _.SXm.t.w.m.PX$X-   O O   - - - 0 6XyX.. . . ._ h ZX}.# % w .   . r   q hXgX@Xl.z.l.lXJXG   O . t bX/.[ ) 9.} ' ",
"`.>XnX&X4X5X4X2XuX,X,XcX].uXBX].:X<X<XE   x.6XbXjXhXiX8XyXn %.qX`.KX1XrX,X-X5XI q 6X:X~.dXAX3X*X&XrXBXeX~.T.R.K._.VXXX`.8.qX|.MX"
};
