/* XPM */
static char *_f8a3cbfa2fc4701c0294679845242a9aWtT4pNDXMhq5ZrN[] = {
/* columns rows colors chars-per-pixel */
"64 64 244 2 ",
"   c #0C0500",
".  c #0D0E0C",
"X  c #090804",
"o  c #130301",
"O  c #140C0B",
"+  c #180905",
"@  c #18110D",
"#  c #0D0E13",
"$  c #0C1213",
"%  c #0E151B",
"&  c #131414",
"*  c #1B1414",
"=  c #13151A",
"-  c #16191D",
";  c #1B1A1C",
":  c #1C1A18",
">  c #10100E",
",  c #250C04",
"<  c #26150B",
"1  c #3A1407",
"2  c #231614",
"3  c #261B17",
"4  c #371B17",
"5  c #380F00",
"6  c #1C201F",
"7  c #392218",
"8  c #362115",
"9  c #1D1C23",
"0  c #161A24",
"q  c #221E2A",
"w  c #241D25",
"e  c #1D2124",
"r  c #1E212A",
"t  c #222226",
"y  c #23222B",
"u  c #2A232D",
"i  c #292729",
"p  c #372729",
"a  c #2C2A33",
"s  c #292936",
"d  c #352C35",
"f  c #3A3439",
"g  c #283238",
"h  c #471908",
"j  c #43180E",
"k  c #492517",
"l  c #582A13",
"z  c #682B1B",
"x  c #663419",
"c  c #482C25",
"v  c #542D23",
"b  c #48342D",
"n  c #56372B",
"m  c #49393A",
"M  c #573935",
"N  c #422E32",
"B  c #633C34",
"V  c #6F3828",
"C  c #58453B",
"Z  c #4F403B",
"A  c #6A473B",
"S  c #794836",
"D  c #79472E",
"F  c #373344",
"G  c #283140",
"H  c #473E44",
"J  c #3D4250",
"K  c #43424A",
"L  c #464958",
"P  c #5A4C4F",
"I  c #795446",
"U  c #665555",
"Y  c #73564E",
"T  c #7E6252",
"R  c #4D4B60",
"E  c #555468",
"W  c #535569",
"Q  c #635E6E",
"!  c #68657A",
"~  c #736970",
"^  c #5B627E",
"/  c #813C2C",
"(  c #873F31",
")  c #86452E",
"_  c #864836",
"`  c #8C5438",
"'  c #96573A",
"]  c #914F3A",
"[  c #A65E3C",
"{  c #865745",
"}  c #935C44",
"|  c #95574A",
" . c #90564C",
".. c #A15D4B",
"X. c #9C644C",
"o. c #98644A",
"O. c #896458",
"+. c #9C6A53",
"@. c #976856",
"#. c #9A725B",
"$. c #8E634D",
"%. c #A2644D",
"&. c #A36A4B",
"*. c #AB6C4B",
"=. c #A86646",
"-. c #B36C48",
";. c #AC714D",
":. c #B5734D",
">. c #A46C54",
",. c #AB6D53",
"<. c #A66859",
"1. c #B16F59",
"2. c #AA7459",
"3. c #B47554",
"4. c #BA7554",
"5. c #BC7855",
"6. c #B4755A",
"7. c #B37A5B",
"8. c #BB7B5A",
"9. c #B67857",
"0. c #876D65",
"q. c #996A65",
"w. c #877369",
"e. c #99766A",
"r. c #887774",
"t. c #967975",
"y. c #AA7866",
"u. c #BC7C63",
"i. c #BA7D6C",
"p. c #B57A64",
"a. c #A97A72",
"s. c #B2786F",
"d. c #C57C56",
"f. c #C17C68",
"g. c #C47C71",
"h. c #97837A",
"j. c #A6816B",
"k. c #BC836C",
"l. c #B78168",
"z. c #AB867C",
"x. c #B48E7C",
"c. c #BC8B7B",
"v. c #BA8476",
"b. c #B6917F",
"n. c #BA927E",
"m. c #BE805B",
"M. c #C6856A",
"N. c #C28473",
"B. c #CB8B74",
"V. c #C68B7C",
"C. c #CA8C7A",
"Z. c #C68974",
"A. c #D28E77",
"S. c #CA927C",
"D. c #C99277",
"F. c #D3937C",
"G. c #CB815A",
"H. c #7C7684",
"J. c #6D6E88",
"K. c #5B6481",
"L. c #7D839B",
"P. c #988888",
"I. c #998B95",
"U. c #9D9298",
"Y. c #8A838D",
"T. c #A58C85",
"R. c #B38F84",
"E. c #BB8B84",
"W. c #AB938A",
"Q. c #B59283",
"!. c #BB9584",
"~. c #BD9986",
"^. c #B5958A",
"/. c #BA9589",
"(. c #BE9B8A",
"). c #B59A8A",
"_. c #A79796",
"`. c #B49B93",
"'. c #BC9D93",
"]. c #B69B97",
"[. c #BEA18D",
"{. c #BEA194",
"}. c #BBA39B",
"|. c #B9A59C",
" X c #9692A7",
".X c #AE9DA4",
"XX c #BAA6A5",
"oX c #BBACB9",
"OX c #ADA1A9",
"+X c #C88D82",
"@X c #C29684",
"#X c #CE9383",
"$X c #C29B86",
"%X c #C29D8C",
"&X c #CA9B8C",
"*X c #C89689",
"=X c #D39584",
"-X c #D49985",
";X c #D39B8C",
":X c #DB9D8C",
">X c #D59789",
",X c #C29E91",
"<X c #CA9D93",
"1X c #C29F99",
"2X c #C69797",
"3X c #D49E92",
"4X c #DB9F91",
"5X c #C1A08E",
"6X c #C4A18D",
"7X c #C9A38C",
"8X c #C2A191",
"9X c #C4A090",
"0X c #C7A292",
"qX c #C5A291",
"wX c #C6A395",
"eX c #C3A294",
"rX c #CAA494",
"tX c #C5A59A",
"yX c #C9A69B",
"uX c #C6A89D",
"iX c #C9A99C",
"pX c #C9A896",
"aX c #D3A295",
"sX c #D8A599",
"dX c #D0A089",
"fX c #E5A793",
"gX c #E7AA92",
"hX c #C7AAA5",
"jX c #D3ABA4",
"kX c #D7AAA6",
"lX c #DAB6B6",
"zX c #D8B7B8",
"xX c #CDB1B3",
"cX c #E6B6AF",
"vX c #F2C2B4",
"bX c #B5AAC1",
"nX c #D9BDC3",
"mX c #CDBDC9",
"MX c #E2BEC0",
"NX c #DCC2C8",
"BX c #D8C7D8",
"VX c #E6C5C5",
"CX c #ECCCD3",
"ZX c #E6D3E4",
/* pixels */
"!.b.!.!.!.~.%X(.8XwXpXwX9X0X9X$X~.@X~.~.~.!.~.~.!.~.%X%X$X$X$X$X@X$X$X6X$X$X%X9XeXtXpXpXrX9X6X$X(.(.%X%X%X%X%X%X%X,X%X,X,X,X%X(.",
"!.n.!.!.~.(.%X%XeXwXwXwX0X9X5X(.~.@X@X~.~.~.~.~.!.~.%X%X%X%X%X$X$X$X%X%X%X$X%X9XeXeXtXpXrX6X$X$X(.(.%X%X%X%X%X%X%X%X,X,X%X%X%X(.",
"n.!.!.!.(.%X%X%XwXwXwXwXrX9X%X~.~.!.!.~.~.~.~.~.~.(.%X%X%X%X$X$X$X%X%X%X%X(.%X8XeXtXtXwX0X6X$X~.(.(.%X%X%X%X%X%X%X9X9X%X%X%X%X%X",
"n.!.!.!.%X%X(.9XrXwXwXpXrX5X(.~.@X@X!.@X~.~.~.!.(.(.%X%X%X%X(.(.(.%X%X(.(.%X8X8XwXtXtXwX9X%X$X$X%X%X%X%X%X%X%X%X9X9X9X%X%X(.%X%X",
"n.!.!.~.%X%X%X9XrX9X9XrX9X%X~.~.$X@X!.@X~.~.~.!.%X(.(.(.%X%X(.(.(.(.(.(.[.5X8XwXwXwXrXrX9X%X$X$X%X%X%X%X%X%X%X%X9X9X9X%X%X(.%X%X",
"n.n.!.~.%X%X%X9XrX9X9X9X,X(.~.~.$X$X@X@X~.~.~.~.%X(.(.(.%X%X(.(.(.[.[.(.%X5X9X9XwXwXrX9X9X%X%X%X%X%X%X%X%X5X9X9X9X9X%X%X%X%X%X%X",
"!.n.!.%X%X%X9X9X9X9X9X,X%X(.~.~.@X@X@X~.!.~.~.$X%X%X$X%X%X(.$X(.(.6X6X6X6X6X9X9XrX0X9X,X%X%X%X%X%X%X%X%X%X%X9X9X9X%X%X%X%X%X,X,X",
"!.b.~.%X%X%X9X9X%X9X9X%X(.~.~.~.~.~.~.~.!.~.$X$X%X%X%X%X%X$X$X%X%X6X6X%X6X6X0X6X0X9X9X%X%X%X%X%X5X%X%X%X%X5X9X9X9X%X%X%X%X,X,X,X",
"Q.!.(.(.~.%XrX9X9X9X%X(.~.~.~.~.Q.6X~.~.$X~.$X$X%X%X$X$X$X$X$X%X6X6X~.6XrXrXpX6X0X0X6X%X%X(.%X,X%X%X%X5X8X8X9X8X8X5X(.(.8X8X8X,X",
"n.!.(.(.$X6X9X9X9X9X%X(.~.~.~.~.$X~.Q.~.~.~.6X7X$X%X%X%X%X%X%X%X(.5X5X9X0X$XrXpXrX6X6X%X(.(.'.,X,X%X%X5X8X8X8X8X8X5X(.(.8X8X8X,X",
"n.~.~.~.,X0X9X9X9X%X$X(.~.~.@X~.(.Q.(.%X~.~.(.(.%XrXrX(.^.(.eX8XeX{.{.{.jXwXiX9X9X6X%X%X(.,XeX1X8X%X%X5X8X8X8X8X8X8X(.,X8X8X8X8X",
"!.$X~.~.0XrX%X9X9X%X(.!.~.~.@X~.$X!.(.!.(.rX5X5XwX(.^.).tX}.}.}.}.|.XX|.}.eXpXpXwX%X%X%X%X8XeX1X8X5X5X8X8X8X8X8X8X8X8X8X8X8XeXeX",
"~.(.~.(.9X9X%X9X%X$X~.!.~.@X@X~.~.~.~.Q.6X0X~.).`.{.XX_.P.r.r.~ Y.U._.XXXXxXhX'.eX,X%X%X%X9XwX,X8X5X8X8X8X9X8X8X8X8X8X8X8X8XwXwX",
"~.~.~.%X9X9X%X9X%X(.!.!.~.~.~.~.Q.~.%X%X%X(.).uXhXT.~ m m H L K K L Q H.I.XXhXhX{.'.(.%X5X9X,X,X8X8X8X8X9X9X8X8X'.8X8X8X8X8XwXwX",
"(.!.~.%X9X%X%X%X%X~.!.!.~.~.~.@X@X$X$X$X~.9XpXW.U N i t a 9 g J L L Q E Q ~ I.XX].{.%X5X6X6X,X,X9X8X8X8X9X9X8X8X'.8X8XwX8X8XwXpX",
"(.!.(.9X%X%X%X%X(.!.!.~.~.~.!.@X$X!.~.%X(.wXz.c < 2 t 9 y 0 s g G g R L E E H.I..X}.{.8X&X%X%X,X9X8X8X9X9X9X8X8X(.8XwXwX8X8XwXpX",
"!.(.%X%X%X%X$X$X~.~.~.~.~.~.~.~.$X!.!.5XtX0.8 < 3 * * 3 t t i g f f K K K R ! ! ~ OXXX`.&X&XrX'.8X9X9X9XwXwX8X(.'.eXeX,XeXeXpXpX",
"~.(.%X%X%X%X$X$X~.~.~.~.~.~.~.~.Q.%X,XwXe., 3 < , 2 3 2 * 3 : : 3 p d f H F L W ! H..XXX$XdX%X{.8X9X9X9XwXeX8X(.8X8X8X8XeXpXpXpX",
"(.(.%X%X%X%X$X~.Q.~.~.~.~.~.(.(./.%X^.tXn , , 7 v n M M c 4 4 4 7 p N N U ~ ! R R Q I.XX%XdX,X}.8X9X9X9X8X8X8X,X8X8X8X8XeXpXpXpX",
"(.(.%X%X%X$X~.~.~.~.~.~.~.~.(.(./.(.hX0.+ , n O.y.v.E.@XE.z.a.z.'.^.tX].xXnXBX XR ! H.U.yX%XeX{.eX9X9X9X8X8X8X8X8X8XeXeXtXpXpXpX",
"(.(.%X%X%X$X~.~.~.~.~.~.(.(.(.~.8X`.W.7 , c #.2.2.M.C.V.*X3X3XsXsX<XkXkXlXnXZXBX! ! J.Y.hX%XpX{.wXwXwX9X8X,X8X8X8X8XeXwXpXpXpXpX",
"%X(.%X%X%X(.~.Q.~.~.~.~.(.(.(.(.(.uXh.2 < C #.2.8.M.B.C.;X;X;X4XaXaX3X&XkXlXCXZX XW J.H.].wXtXeXpXwXwX9X8X,X8X8X8X8XeXpXpXpXpXpX",
"%X%X(.%X%X(.~.Q.~.~.~.~.(.(.(.(.9XuXw.+ 3 A @.3.d.d.B.=X;X&X#X-X#X>X;X+X&XkXNXZXbXW J.! W.pXtXeXwXwX9X,X,X8X8XwXeXeXwXyXtXpXpXpX",
",X%X(.%X%X~.~.Q.~.~.~.~.(.(.(.(.~.iXT , 7 I +.*.d.G.B.D.@X&X;X=X>XC.+X;X*XjXnXBXbXJ.K.W P.pXwXwXwXwX9X,X8X8X8XwXeXeXwXyXtXpXpXuX",
"(.%X%X%X~.!.~.~.!.~.~.~.~.(.(.%X$X0Xt., 4 I ,.4.d.d.M.S.3X3X:X:X:X:X;XaX&XyXxXNXoXJ.^ R T.iX5X0XwXwX9X,X,X8XwXeX1XwXpXpXpXyXuXpX",
"(.%X%X$X~.!.~.~.~.~.~.~.~.(.(.%X$XpXz.1 v { %.8.d.M.B.#X;X3XaX:XfXfXaXsXsXkXlXnXoXY.L.! `.rX6X0X9X9X,X%X,X8XwXeXeXtXyXyXpXyXpXtX",
"%X%X%X(.~.!.~.~.~.~.~.~.(.(.(.%X(.5XT.7 A @.2.6.M.A.S.aXaXaX:X:XfX#X&XaXkXjXlXNXmXOX XH.}.rX%XpX9X9X,X%X,XeXwXeXwXpXyXiXiXtXpXeX",
"%X%X(.~.!.!.~.~.~.~.~.~.(.(.(.(.5XQ.).n I @.2.l.p.l.a.E.@X&X=X=X=XV.*XE./.1XlXVXNXxX XU.tXsX6X0X9X,X%X%X,XwXeXeXtXpXiXiXiXpXpXeX",
"%X(.~.!.!.Q.~.~.~.~.~.~.(.%X(.[.[.8X[.v { j.o.V l k k n I y.k.u.2.S B v k M e.jXVXxXOXOX'.&XaX9X,X,X,X,XeXeXeXeXpXyXiXiXiXpXeXeX",
"%X(.!.Q.Q.Q.~.~.~.~.~.~.(.%X(.[.).(.$XS o.o.S S O.Y n k v } N.f.' l k B Y O.O.0.xXzXoX_.jX0XrXwX,X,X,X1XeXeXeXwXpXpXiXiXtXeXeXeX",
"(.~.!.Q.Q.~.~.~.~.~.~.~.(.%X(.(.9Xx.i.] %.p.>.$.A c n n S +.F.A._ V A B M T q.e.,XVXxX.XjXsX1X1X,X,X,XwXeXeXwXpXiXpXtXtXpXeXeXeX",
"(.~.Q.Q.Q.~.~.~.~.~.~.(.%X%X%X%X&X<.2.%.=.f.%.l B k M I @.<.:XgX} ` { A j v I z.yXVXzX].q.*XyXwX,X,X,XwXeX,XwXyXiXpXpXtXpXeXeXeX",
"~.Q.Q.Q.Q.~.~.~.!.~.~.(.%X%X%X$X*Xy.i.%.6.u.6.%.o. .@.s.s.i.F.gXS.y.y.@. .q./.hXzXCXlX2Xs.c.aX%X%X,X8X8XeXwXpXiXtXiXyXpXwX8XeXeX",
"~.Q.Q.Q.Q.~.~.~.!.~.~.(.%X%X%X$X&Xi.k.%.6.M.M.u.i.V.+X+XN.N.-XgXsX&X#XC.#X#XjXzXVXVXcXq.v.&XrX%X,X8X8X8XeXwXtXiXiXiXyXtX8X8X8XeX",
"Q.Q.Q.Q.Q.~.~.~.!.~.~.(.%X%X%X$X&Xc.k.X.6.k.B.F.=X:X>XV.i.i.>XcXcXkX:X:X=XsXcXVXVXMXlXq.*X3X%X(.8X8X8X8XeXpXtXtXiXiXpXeX8X8XeXwX",
"Q.Q.Q.Q.!.!.~.!.!.~.~.(.%X%X%X$X@Xc.k.X.,.u.B.F.:X=X#X#XV.V.fXgXvXsX#XfX:XaXsXjXlXlX2XE.sX&X%X'.eX8X'.8XeXpXuXtXiXiXpXeX8X8XwXpX",
"Q.Q.Q.!.!.!.!.!.~.~.(.(.%X%X%X$X!.@Xv.+.>.p.M.D.=X#XaX;Xy.<.C.N.v.&XC.:X:XsX<XyXhXjXE.sXkX%XwXeXeX8X{.eXpXuXiXtXiXtXpXeXeXeXpXpX",
"Q.Q.Q.!.!.!.!.!.(.(.(.%X%X%X(.(.$X$Xc.#.X.l.k.Z.#X=XaX+X@.{ y.| z y.N.=X>XfXaXrX1XtX<XkXsX,XeXeXeX8XeXeXpXuXiXiXiXpXeXeXeXeXuXiX",
"Q.Q.Q.!.!.!.!.~.(.(.(.$X%X(.(.~.(.$X@X2.o.p.l.Z.S.S.#X#Xk.@.<.{ v.;X=X:XF.F.&X<X,X1X<XsXrX,X`.{.eXeXeXpXpXiXiXpXpXtXeXeXeXpXiXiX",
"Q.Q.Q.Q.Q.!.!.~.(.(.(.$X(.(.(.~.$X~.%Xy.} p.p.Z.N.C.#XV.<.z V S _ 3XfXF.A.F.#X*X<X,Xa.@X%X9X`.{.{.eXeXpXpXiXiXiXpXeXeXeXtXpXiXiX",
"Q.Q.Q.Q.Q.!.!.!.(.(.(.(.(.(.(.(.(.(.&Xn.} 2.l.k.k.C.N.| z z 1.1.V  .1.B.F.C.V.@X<X/.<X,X%XwX'.'.eXeXeXiXiXpXpXiXpXeXeXeXpXiXiXiX",
"Q.Q.Q.Q.Q.!.~.(.(.(.(.(.(.(.(.(.%X(.%X@X>.>.p.u.M.,.) ) | ..<...| | ] ..6.B.C.c.*X,X<X%X%X8XeX{.eXeXpXiXiXiXpXiXeXeXeXeXtXiXiXtX",
"b.b.b.Q.Q.!.~.(.(.(.(.(.(.(.(.(.(.(.$X&Xi.>.6.6.M.*.] ) / _ ]  .| _ / ' 6.M.N.c.E.,X,X%X%X,XeXeXeXtXtXtXuXuXuXtXeX{.eXtXtXuXuXtX",
"b.b.b.Q.Q.!.~.(.(.~.~.~.~.(.(.(.(.%X%X&Xc.X.,.3.6.,.,.,.,.g.g.g.N.g.u.u.8.6.s.c.E.<X%X,X8X'.eX'.{.tXuXtXtXuXuXeX{.{.eXtXuXuXtXtX",
"b.b.n.n.Q.!.!.!.(.(.!.!.!.~.(.(.(.(.(.&X@X} X.,.,.9.8.8.u...V / %.p.M.u.6.2.s.a./.1X(.'.eX8XeX'.}.tXuXtXtXuXtX{.{.{.tXtXuXuXtXeX",
"b.b.b.n.!.!.!.!.!.!.!.!.!.~.(.(.{.(.(.0X*X` } &.3.*.*.9.f.1._ ( 6.u.u.6.6.p.v.v.tXtX'.`.{.[.8XeXtXtXuXtXpXtXeX{.{.{.tXtXuXtXeX}.",
"b.b.b.Q.!.!.!.!.!.!.!.!.!.(.(.(.`.).(.%X@X} ' ' *.=.9.8.f.B.A.N.C.Z.B.A.Z.i.v.E.jX'.'.{.{.[.8XwXtXtXtXtXpXeX{.{.{.eXtXtXtXtXeX{.",
"x.b.b.Q.!.!./././.!./.!./.(.(.(.^.(.0X$XV.X.} ` ` &.7.7.N.N.Z.V.V.V.S.D.l.y.c.rXjX/.'.{.{.{.(.wXtXtXtXtXpX{.'.{.eXeXpXpXtXeX}.'.",
"x.x.b.Q.!.!.^.(.^.^.^./.(.(.(.!.(.(.$XdXZ.%.2.} _ S { $.{ @.a.q.O.O.q.e.@.y.@X&XyX'.tX'.'.{.{.tXtXhXhXtXtXeX,X'.eXpXpXtXeXeX1X'.",
"x.b.b.Q.^.^.!.^.^.^.^.!.!./.(.(.^.(.$X&XS.o.%.>.o._ x h 1 v B c c 4 k A @.l.c.*XyX1X].].tXeX'.pXtXtXtX1X'.'.1XwXeXpXpXpXeXeX'.'.",
"x.Q.Q.^.!.!.!.!.!.Q.!.(.(.~.~.(.tX).'.%Xn.@.2.&.X.o._ z h h h 5 , 1 l { k.v.c.,XtXhXhX|.].eXyXwX,X8XwXtX1X1X'.'.eXtXpXeXeX{.).).",
"R.Q.Q.^.!.!.!.!.(.Q.Q.Q.!.!.!.(.`.].}.iX~.+.>.2.*.*.} ' _ V x l l D } ,.i.i.c.yXt.4 r.XX].tX1X9XpXpXwX8X'.'.1X1XtXtXeXeX{.[.(.(.",
"R.Q.Q.Q.!.!.!.!.x.x.Q.(.(.(.(.`.XXXX`.W.@.$.2.7.9.*.[ =.=.o.' ` ' ' [ *.6.i.c.,XT.,   P ].|.hXtX{.[.(.).'.{.tXtXtXtXeXeX{.).(.(.",
"R.Q.Q.Q.Q.!.Q.Q.b.Q.!.^.Q.Q.^.`.XXXXM o 5 +.7.3.4.9.-.*.=.=.*.*.[ ' [ 5.8.l.c.@XhXT.m p U P .X|.}.uXtX{.`.'.}.}.tXeXeX{.'.).).(.",
"R.Q.Q.Q.Q.Q.Q.Q.Q.Q.Q.^.`.{.}.].w.N o k S +.,.8.8.8.3.;.*.*.*.[ [ [ -.5.4.6.k.*X,X1Xr.N m d K ~ _.].XX}.`.{.}.}.uXeX{.{.'.(.(.'.",
"R.Q.Q.Q.Q.Q.Q.Q.z.Q.).`.`.h.P 7 * < n O.I } 3.9.m.8.9.3.;.*.-.[ [ -.-.4.5.l.k.c.,Xt.M p u a J y f U P.].XXXX|.}.}.{.{.'.'.'.'.'.",
"Q.Q.Q.Q.Q.Q.Q.z.R.`.`.r.Z * O * : @ b T I o.7.;.9.8.8.9.4.4.-.=.-.-.4.5.5.u.k.c.(.C 3 w y s s F d u a H ~ _.XXhX|.{.{.{.'.'.1X'.",
"!.x.x.!.!.Q.^.).`.w.b @ O * ; : = . 2 C T $.o.7.7.7.9.9.4.5.5.:.:.:.:.9.7.y.a.!.P 7 3 y y s s s s d a u u f U r.T.XXhX^.'.'.^.eX",
"Q.Q.Q.Q.^.`.T.0.b 3 O : ; & # = - & X 2 C w.j.y.2.7.7.3.3.3.3.:.*.;.;.>.y.z.O.c 2 * t y 9 y y a a y y y a a u w f U r.].hX'.'.(.",
"R.^.).W.t.Y b 2 @ * * * = & = - % % $ X   7 Y e.j.l.l.7.>.&.&.;.&.&.+.#.O.M 2 * ; 9 y 9 9 t y a a s y y q 9 y d u w p m r.XX}.'.",
"`.W.r.m @ O * : ; w ; = = = = # = = = & &     < n A O.e.y.y.#.+.+.{ S n <   & ; 9 9 w 9 w y t y y y 9 y s y q q q q u f d P T.XX",
"r.Z @ O : ; ; ; ; = = = = & & : $ $ = $ > O @ +   o + < 8 8 8 8 , , o   O & $ % 9 9 9 w t t t t u u y y 9 9 y y y 9 q u f d H P.",
"3 * * : : - - = = 0 - $ & : * . ; . = * O O * O & . X X     o   o   O O . & ; ; 9 9 9 9 9 e y y y u u t 9 e e e - e 9 y d d f F ",
"* * ; ; - - 0 = 0 % = ; : & O * . & & O 2 * > = # $ $ $ . . O O > > . & = ; : ; ; ; ; ; 0 0 y 9 q u a t 9 9 6 ; e e y r y g F F "
};
