/* XPM */
static char *_3532_75a936a9d2a1ae5068e130de4139356a4a518ff9ec3b46ab90e1bae522ce1edb[] = {
/* columns rows colors chars-per-pixel */
"70 70 256 2 ",
"   c #0A355A",
".  c #033868",
"X  c #073B7B",
"o  c #0F486B",
"O  c #054778",
"+  c #0C4B7D",
"@  c #164A76",
"#  c #07537C",
"$  c #18587B",
"%  c #2B5979",
"&  c #33677B",
"*  c #44797E",
"=  c #094A85",
"-  c #174D85",
";  c #0C5584",
":  c #0A5988",
">  c #13548B",
",  c #195789",
"<  c #135B8C",
"1  c #055A94",
"2  c #175A96",
"3  c #1B5B93",
"4  c #265388",
"5  c #245888",
"6  c #235C95",
"7  c #0A6289",
"8  c #196587",
"9  c #15628C",
"0  c #1C748D",
"q  c #086697",
"w  c #136393",
"e  c #1B6394",
"r  c #19679A",
"t  c #17749A",
"y  c #276788",
"u  c #3B728A",
"i  c #23639B",
"p  c #236C9C",
"a  c #286898",
"s  c #366996",
"d  c #24739C",
"f  c #2A779A",
"g  c #377899",
"h  c #1A5DA0",
"j  c #086BA2",
"k  c #196CA4",
"l  c #1975A7",
"z  c #1A77B3",
"x  c #236CA3",
"c  c #296AA4",
"v  c #326CA6",
"b  c #2777A6",
"n  c #2C7CAC",
"m  c #337AAA",
"M  c #3778A8",
"N  c #247AB4",
"B  c #3579B2",
"V  c #4D7590",
"C  c #487DA3",
"Z  c #427AB5",
"A  c #2D7DC1",
"S  c #29869B",
"D  c #3A899A",
"F  c #1984A7",
"G  c #198DB3",
"H  c #2886A6",
"J  c #2A84AB",
"K  c #3786AA",
"L  c #2693A9",
"P  c #3895AA",
"I  c #2787B6",
"U  c #3787B7",
"Y  c #3B8CBB",
"T  c #2997B7",
"R  c #3895B9",
"E  c #3AA1B8",
"W  c #478697",
"Q  c #72919D",
"!  c #4688A9",
"~  c #558FA8",
"^  c #4492AA",
"/  c #4689B7",
"(  c #4898B8",
")  c #559ABB",
"_  c #678AA6",
"`  c #7196AA",
"'  c #679AB8",
"]  c #48A3BA",
"[  c #59A3BB",
"{  c #6AACB8",
"}  c #78A7BA",
"|  c #368CC8",
" . c #2898C5",
".. c #3997C7",
"X. c #3394CB",
"o. c #38A7C8",
"O. c #32AACD",
"+. c #448CC4",
"@. c #4594C3",
"#. c #4799C6",
"$. c #4B9BCD",
"%. c #5499C7",
"&. c #418FD1",
"*. c #459DD4",
"=. c #569BD2",
"-. c #629FC1",
";. c #49A7C7",
":. c #58A8C7",
">. c #53ACCB",
",. c #4DB1CF",
"<. c #59B4CC",
"1. c #48A8D5",
"2. c #52A3D3",
"3. c #58A9D8",
"4. c #4BB4D7",
"5. c #5CB4D4",
"6. c #58B8D8",
"7. c #64AAC8",
"8. c #78AAC8",
"9. c #67B7CB",
"0. c #76B8CC",
"q. c #65A9D8",
"w. c #66B8D6",
"e. c #62B4DB",
"r. c #6BBCDC",
"t. c #77B9D8",
"y. c #4FB3E6",
"u. c #58B7E4",
"i. c #65ACE3",
"p. c #68B9E5",
"a. c #64BBEB",
"s. c #75B9E3",
"d. c #69BAF1",
"f. c #5EC1D9",
"g. c #7AC6CE",
"h. c #64C3DD",
"j. c #69C5DC",
"k. c #77C6D8",
"l. c #74C4DC",
"z. c #7CC4DD",
"x. c #59C6E7",
"c. c #5ACBF3",
"v. c #6CC4E3",
"b. c #68C7E8",
"n. c #73C4E3",
"m. c #76C9E6",
"M. c #7ACBE4",
"N. c #74CBEC",
"B. c #6BD2E9",
"V. c #79D5EA",
"C. c #69C9F6",
"Z. c #79CAF7",
"A. c #6CD3F6",
"S. c #78D5F7",
"D. c #78E2F9",
"F. c #809CB3",
"G. c #8EACBA",
"H. c #87B9CD",
"J. c #90B6CD",
"K. c #87BAD6",
"L. c #A9BECB",
"P. c #8CBFE2",
"I. c #86C6CE",
"U. c #87C7DA",
"Y. c #97C9DA",
"T. c #8AD0D7",
"R. c #93D1DC",
"E. c #ABCEDA",
"W. c #82CBE3",
"Q. c #85C9E6",
"!. c #95CBE5",
"~. c #82D3EB",
"^. c #89D6E9",
"/. c #97D5E7",
"(. c #96DAEC",
"). c #9CDDEC",
"_. c #86CAF9",
"`. c #95CEFA",
"'. c #84D4F3",
"]. c #8BD5F4",
"[. c #84DBF3",
"{. c #8ADAF3",
"}. c #84D4FD",
"|. c #8CD5FD",
" X c #88DBFD",
".X c #98D6F6",
"XX c #93DBF5",
"oX c #94DDFC",
"OX c #9BDDFB",
"+X c #A5CAE2",
"@X c #A3D5E5",
"#X c #A9DAE9",
"$X c #B6D9E7",
"%X c #A4DCF6",
"&X c #B6DCF4",
"*X c #84E0EF",
"=X c #99E3EE",
"-X c #87E5FA",
";X c #8CE4FD",
":X c #9CE2F3",
">X c #95E7F9",
",X c #94E4FD",
"<X c #9CE4FC",
"1X c #9CEBFE",
"2X c #9DF3FF",
"3X c #A8E4EC",
"4X c #B5E6EA",
"5X c #A4E4F2",
"6X c #AAE6F5",
"7X c #A3E5FC",
"8X c #ACE4FD",
"9X c #A3ECFE",
"0X c #ABECFD",
"qX c #B3E5F4",
"wX c #B8EAF4",
"eX c #B4E5FD",
"rX c #BBE6FE",
"tX c #B3ECFD",
"yX c #BCEAFE",
"uX c #A5F2FF",
"iX c #ACF2FF",
"pX c #A6FAFF",
"aX c #ACFBFF",
"sX c #B8F5F5",
"dX c #B3F3FF",
"fX c #BCF4FE",
"gX c #B4FBFF",
"hX c #BCFCFF",
"jX c #C6DBEA",
"kX c #C7E9EC",
"lX c #D3F0ED",
"zX c #C5E6F6",
"xX c #CCEBF5",
"cX c #C4EBFE",
"vX c #CCECFE",
"bX c #D5EBF5",
"nX c #D3EEFE",
"mX c #DAEEFD",
"MX c #C3F3F5",
"NX c #CCF3F4",
"BX c #C4F4FD",
"VX c #CCF3FE",
"CX c #C4FCFF",
"ZX c #CCFCFE",
"AX c #D3F4F5",
"SX c #D8F8F6",
"DX c #D4F2FE",
"FX c #DBF2FE",
"GX c #D3FCFE",
"HX c #DCFCFE",
"JX c #E1EEFD",
"KX c #E3F4FF",
"LX c #EAF6FE",
"PX c #E3FEFE",
"IX c #EAF9FD",
"UX c #F3FAFF",
/* pixels */
"KXKXLXUXUXUXLXLXLXLXKXLXKXKXKXmXFXKXFXFXmXmXmXmXrXvXJ.{ fXGXGXHXHXGXHXHXGXAXAXDXFXFXFXFXAXDXHXGXHXPXGXkXSXSXSXFXFXFXFXFXmXKXFXKXeXvXyXFXFXLX",
"LXKXKXKXLXLXLXLXLXvXLXLXLXLXLXKXLXKXLXKXKXFXmXnXnXnXY.0.7XfXZXGXNXNXlX4X4XkXDXFXFXAXFXbXbXSXHXHXPXPXSXSXSXSXSXFXSXFXDXKXKXKXDXVXKXKXKXIXLXKX",
"KXZ.eXKXKXFXmXKXLXKXnXKXKXKXLXLXLXLXLXKXFXFXmXnXnXDXU.z.^.).wXCXCXNXGXPXPXPXSXSXFXFXFXFXFXFXPXPXPXPXSXHXAXZXHXIXFXmXcXFXFXFXFXmXFXKXKXKXKXKX",
"vXnXmX8XKXLXKXJXKXKXKXKXmXnXvXKXLXKXFXKXKXmXDXnXnXjX9.M.w.0.^.dXZXGXGXGXHXPXPXPXPXHXPXHXSXHXPXHXHXPXPXHXAXGXGXNXDXmXFXFXFXvXLXKXKXKXFXKXLXnX",
"FXFXFXvX|.OXOX|.|.|.JXcXmXDXnXvXKXmXFXmXFXFXnXnXvX@X7.V.5.<.l.1XtXBXGXHXHXIXPXPXPXPXPXPXHXPXPXPXPXSXAXkXZXCX4X4XkXnXFXFXFXmXFXKXFXKXFXKXmXeX",
"DXvXvXrXeXrXrXrXcXrX`.cXvXvXvXvXvXnXbXvXvXnXDXDXGXt.w.N.w.>.9.[.OX6XfXZXGXNXlXlXPXHXHXPXHXPXPXPXPXPXGXNXZXwX3X3XqXnXnXFXFXFXFXFXKXKXKXFX}.nX",
"vXvXvXnXvXrXcXrXrX8XcXcXcXcXvXnXDXxX4X@X4XcXvXPX8X9.j.v.6.,.<.l.]..XOXdXsX4XkXNXHXSXHXGXAXSXHXHXSXSXGXZXtX:X=X=XcXxXmXnXmXFXFXKXKXKXFXvXvXvX",
"vX8XcXvXcXrXeXrX&XrXcXcXcXcXcXnXDXzXY.)./.dX$XvX:X9.n.e.w.>.;.j.Q.].].T.^.6XCXZXSXAXAXAXNXVXGXHXSXGXGXCX:X<X<X/.4XDXnXnXDXmXFXFXKXKXKXnXvXvX",
"cXnXvXvXvXrXrXOXeXeXeXrXvXvXKXmXFXxXg.k.^./.#XBXXX9.5.l.M.[.V.j.V.{.V.N.] *XaXZXZXHXSXGXNXZX#XBXZXZXCXH.W.oX*XpXwXMXvXDXnXDXmXFXKXFXcXnXvXvX",
"vXnXvXvXcXrXrXeX7XeXeXcXcXKXeXnXFX@X] :.l.z.Y.@X0.9.~.9XuX9X1X,XM.M.S.S.P f.aXiXZXNXZXGXZXI.8X%XyX@X%X].t.r.=X>X6XDXnXnXnXnXDXnXbXmXnXvXvXvX",
"yXvXvXvXcXrXeXeXeXeXrXrXnXvXnXnXmXY.w.;.5.z.@X/.^.=X7X:X=X5X9X7XpXV.f.x.O.o.S.uXCXGXZXZXT.~ .XOX/.0.<X0X9Xm.9.U.R.NXSXvXnXnXnXbXxXvXmXnXvXvX",
"vXvXvXvXcXrXeXeXrXeXyXvXvXnXnXnXFXU.j.6.w.{.CXCX6XdX0X@X3XsXfXtXgX=Xj.x.T o.f.,X=X4XsXhX/.0.1X].M.k.{.0X{.1X~./.Y.lXFXnXDXDXbXvX$XDXDXFXvXnX",
"nXcXvXvXvXcXrXzXzX8XcXVXnXnXnXnXmX#X:.;. XhXfXZXfXyXwXqX4X4XqXqX6XpXj.f.F T E [.dXdX3XT.g.*X,Xm.r.k.].iXuX^.).fXMXVXFXnXnXvXzXzX$XnX8XrXvXvX",
"nXyXrXvXcXcXcX@X3X/.@XBXzXnXnXnXmX#X( R M.iXCXfXGXGXVXMXNXMXcXcXsX0Xf.E L E ,.<.].9X^.^.f.*X[.v.j.w.,X1X~./.gXqXwXHXFXFXFXVXwXR.#XDXDXnXrXvX",
"mXcXrXvXcXcXxXY.3XR.tXyXzXVXnXDXAX/.:.( 7.K.dXwXDXHXHXGXGXGXDXcXyXCX^.S L E ,.[ Q.{.{.B.<.V.V.5.h.w.V.1X^.0X3XwX4XPXPXmXFXrXqXY.qXDXmXDXvXmX",
"nXnXnXvXcXvXNXI.%X^.7XdX#XzXzXvXnXY.r.].n.7./.Y.rXcXZXBXNXVXVXVXBX3XgX9.S L ] ,.'.{.[.V.] D.h.h.b.l.V.~.:X=XwX4XxXbXFXPXjXY.).U.zXDXFXFXFXnX",
"FXmXnXcXcXvX+XT.~.oXuXgX5XY.wXqX@X6X:X9Xz.7.j.^.z.!.%X%XCXCXGXGXZXZXZXhXg.P ] :.>XV.D.-Xh.;X>.b.h.j.l.2XpX:X3X4X4XAXFXHXrX%X%Xt.VXAXnXFXnXFX",
"nXDXDXnXnXvX+XQ.~.1X1XgX).I.U.5X3XeXyXfXk.7.5.l.;X7.w.t./.5XBXZXZXNXZXCXCX/.( v.V.V.-XB.D.;Xa.x.x.h.V.2X2XiXiX3XMXHXGXyXK.OXs.Q.cXnXnXmXFXnX",
"nXnXnXnXnXnX@Xt.m.;X[.1X).R.fXwXMXZXZXBX0.t.>.e.Z.9X{.t.k.U.!.qXZXwXCXsXhXXX! n.*X*XV.B.B.S.C.u.x.w.V.1XXX>XpX:XR.4X6XH.t.'.e.~.CXxXnXnXnXDX",
"KXKXnXnXnXnX!.s.r.v.l.,Xk.).hXCXGXMXVXGX8.w.p.2.e.}.;X{.W.z.t.U.R.#XwXqXhX7X/ |.-X>X5.B.1.x.c.c.u.b.n.>X9X{.9.D =XgX=X0.,Xv.V.V.:XDXmXDXmXKX",
"LXFXnXnXnXvX8.t.:.N.N.-X*X<.~.>XtXGXZXBXeXr.q.$.u.3.N. X{.gXdXR.T.I./.dXhX1X/ |.;Xr.,.A.O. .G  .O.O.h.V.l.] S ] *X2X.X9.N.N.S.~.V.4XDXFXKXKX",
"KXLXnXmXnXvX0.t.2.x.,.6.h.<.<.>XgX3XCXCXfXoX%.S.p.p.#.5.[.^.hXhXhXk.=XhXuXoX/ d.Z.1.A.4.G O.O.G G L ] 1X{.P S L ;X{.Z.5.p.,X;X{.^.3XxXFXLXKX",
"LXKXnXnXFXnXU.q.;.u.1.;.,.;.] <.9.uX7X0XdXiXr.5.e. XE ,.] g.=XpX>Xk.k.2X1XS.n u.u.y.C.o.j O. .G L E 2XgXCXhXz.7. X,Xr.p.p.r.9X^.T.4XFXFXLXKX",
"LXKXnXmXKXnXQ.5.;.6.4.4.E <.j.-Xk.{ 0.!.).7XW.q.r.V.-X] ] E ] M.V.B.<.-X-XB.I ..u.C.O.F O.O. .G E 2XaX).).CXhXoX].oX}.|.>.( Q.fXT.4XFXLXKXLX",
"KXKXKXFXrX(.r.Y ..b.4.;.<.z.g.gXgXuX0.} H.!./.U.t.^.~.B.E E f.B.B.h.,.-X-XB.L ;.x.c.T F o.A. .I S.1X,X8.U.fX7XU.]..X{.[.P ^ g.CX4XZXNXKXKXKX",
"KXFXkXBX).<X].'.e.w.>.5.{.>Xg.>XaXhXZX6X!.BXZX/.} =XU.*XB.T O.D.S.B.;.D.D.V.T ,.S.R J H f.4.T ,.;Xw.r.~.U.).6X%X8X8X:X1XT.=X4XCXGXNXNXFXKXFX",
"NXAXMX6X=X=X0XdXgXiX0XuXV.{.[ 9.XXU.0XGXeX#XBXZXBX@XU.M.M.j.E D.;X6.6.-XV.[.f <.;.K ( :.m.'.w.%.w.w.h.j.V.!.qXZXBXcXfXfXCXZXGXGXZXfXsXMXMXFX",
"E.4XfXhX6X).3XfXBX0XhXM.m.N.H H ( [ t.8X6X} #XZXGXZX/.^.V.D.4.j.2XS.;.>X>Xz.^.>X9XdX7XhX0XdX.X) ) ;.<.B.~.g.fXHXDXnXGXGXSXNXAXGXCXaX=Xg.Y.GX",
"CXG.CX3XfXfX4XkX$XMXeX9Xv.1.I 1.Y f C z.hX{ I.dXwXyXeXQ.XXv.f.B.D.V.<.V.=XT.gXCXfXBXyXCXZXyXcX%XW.:.P f.f.R.NXHXHXSXAXGXGXNXsXhXgXV.E D ).DX",
"CX{ { gX6XfXGXkXxXzXqX<Xn.b T ....K %.w.gX9.{ iXtX&XBX0X[.>.L f.A.b.6.>X=Xg.3XCXBXVXGXVXGXZXvXrXeX0XV.*XpXCXGXHXFXFXFXFXHXZX3X1X,X;.L 9.qXFX",
"GX{ V =X0X/.tXMXVXVXyX.X~.r.( r.s.q.l.m.2Xj.] ~.OX7XdX1X] ;.o.c.C.6.;.>X=XI.#XGXDXnXFXAXlXGXVXGXZXBXsXaXCXMXAXKXmXKXKXFXHXBX~.V.x.T ] ~.wXLX",
"PX$XD [ n.XX%XeXrXZXBXtX0XOXiX^.^.W.]. X2XS.] w. X7X,X Xf.o.T c.A.B.<.*X3X4XsXSXDXFXAXSXAXSXHXDXbXHXfXsXfXxXkXbXFXmXJXmXHXtXn.c.A.O.B.k.DXKX",
"JXY.[ e.;.e.`.`.`.`.7XhXhX3XeX6XtX(.1X,XS.-X>.#.|.OXOX_.b.1.F x.x.A.j.>X6XhXZXlXbXSXbXSXHXSXFXFXIXbXHXGXCXwX#X&XzXHXFXnXZX1XN.C.c.O.A.^.HXKX",
"KXjX:.2.#.;.q._._.Q.U.).CXBXeXcXeXtX7X1XV.;X;.R a.Z.}.C.b.S.T x.v.s.w.6XfXCXVXFXFXlXKXPXDXPXPXmXbXPXGXBXCXhXfX!./.CXDXBXdXj.6.c.c.G E T.FXKX",
"KXbX! N ....$.i.i.%.t.U.sXCXGXyXcXwX8X9X/ b.y...X.C.c.Z.A.A.A.6.7.1XfXZXcXDXFXbXbXIXKXJXbXFXSXSXmXHXVXyX/.U.k.K [ (.#XsXB.4.A.D.D. .S MXKXKX",
"KXnX7.I | 1.1.2.| c K ^.R.hXCXtXVX4XwXfXq.@.&.1.X.y.A.C.Z.S.Z.|.iXCXZXZXDXFXmXmXJXKXJXLXKXSXHXVXzXBXfXOXD ( J 0 K W.6XhXj.x.4.x.4.J H.FXFXKX",
"KX_.Q...z X...| 2 k < ,XuXR.).fXsXZXyXqXtXt.( / J ;.4.A.D.'.Z.iXGXBXvXbXmXbXbXKXbXbXUXbXHXHXzXZX0XiXhXn.K J #.N.>.l.gX5Xv.o.T  .F P DXKXFXKX",
"KX%XK.#. .| ..| r 2 2 K <XhX(.).CXCXCXfX8XeXtXw.f P <.j.:.{ U.CXZXDXnXbXFXKXlXlXSXSXSXPXVXyXfX9.k.~.m.6.R R J S.d.m.hXCX>.F O.O.H (.FXFXKXKX",
"KXnX0.Y T G F R b w b 9 8 y y z.9X0X0XfXcXBXZXCX3Xg.T.g.g.I.3XBXGXHXDXAXvXbXAXSXlXkXHXZXBX8X[ K v.V.B.1.| X.b @.p.q.fXZXm.q A.T ( BXvXFXFXKX",
"FXKXK.r ..T l F H : x : , # : ( n.M.Q.U./.wXfXhXhXMX=XsXhXBX4XGXVXGXMXBXBXZXZXNXNXZXCXZX7XK K b.A.x.A.4.z z k b $.t.yXBXs.#.Z.1.r.zXyXLXmXKX",
"KXFXH.# R I t L ;.b : 2 = O # f %.K ^ M u ~ dX8XhXgXgXhXZXCXGXkXSXGXsX3XT.%XyXCXBXBX).7XV.J ;.V.x.u.C.I 1 j k l B Z.fXZX`.s.Z.%.:.DXKX8XKXFX",
"KXFX' 8 l R R ;.2.Y 1 c > = ; 9 b < ; , K ! ) {.>XgXgX6XCXBXcXxXNXZXhX{ ) t.!.+X#XrXg l.b.H 6.N.a.C.Z.N k 1 l l l i.dXZXQ.i._./ 8.wXKXFXcXKX",
"FXFX~ y x #.5.3.=.Y 2 B > = 3 p e ; + O m R H :.N.V.{.uX0XdXCXZXZXGX:XP P :..X8XyXU.$ ~.3.R C.u.u.C.&.N X.j r I l Y hXiXq.Z.Z.Y 9.DXKXKXFXnX",
"KXvX/.. d #.=.@.$.N 2 c = > i m p + ; # d b J H p.6.>.9.W.(.dXCXZXZX) ( ..K OXyXZXfX% K U u.d.C.d...N z y.1 l z z U aX{.K b.S.#.7.vXKXmXFXcX",
"rX&X%XM > i.=.=.+.c x h = i m e 9 8 : # 8 b d t J b.3.w.P ~.=X=XZXY.! Y Y R 7.fXBXBX0 $ T C.c.*.I X.1 | Z.N k I z H ,XM.F B.b.o.U.VXFXKXKXKX",
".Xt._.@.e Z B B Y n i 3 - 3 m < 9 9 # ; 8 b : H R H R S.~.k.=X(.CX} f #.I n / gXCXCX& # Y 6...X.X.X.q *.3.q z l I q  Xl.t b.b.V.tXGXVXLXKXLX",
"_.q.3.c = s Z v m m x a + > B k : e ; O ; 0 0 w K K K w.~.z./.tXCX~ f R z l f 0XtXfX% o J ..H L ..| 1 | R j z z  .j Z.p.: ;.'.uX8X@X4XlXKXKX",
"i.i.=.X - - v c a m m e O i N 2 = > = > 9 O d 8 t K S ;.) 7.W.tXfXW K b 1 l b ].dX8Xo # K R T R y.X.1 q l I j G O.q N.n.0 7.:.:.Q.!.I.4XKXKX",
"+.d.v = X 4 s 4 c h A h X - v h O = : e 9 O K l.pX2Xl.<.^ ^ ) 7XdXg f 7 t t t  XtX8.. , K ....o.y.| k j k *.| z 1.j N.] 0 /./.W g :.9.g.kXDX",
"i.B X = . 4 4 4 h h v h X . - 2 + O < i e # f ] M.2XaXuX) ) :._.0X8 t 7 t t b |.hX/ O s B >.J  .y.X.j h h d.y.| d.j t 8 @XGXFXDXQ.P h.k.E.vX",
"v X = h X 4 - 4 6 h v - X . = 2 , O i p r : d b d #.n.'.r.:.%.s.Z.O Z.t q F J S.iX, $ M / #.l  .u.I x k k d.y...a.l p t.BXcXfXBXZXuXh.D J.nX",
"c 6 =.`.Z 4 X X 4 h c - = - i 6 , O a p d < x x Y 7 J s.<X2.%.e.q.< a.u.q I N }.}.> 6 B +.t 7 o.#.+.N N k 3.3.6.C.b a ).FXfXfXfX0X,X;XD J.LX",
"C 4 q.-.Z 4 - . 6 : < 3 - - i i 6 O v i c 1 k x w r 9 U Z.p./ #.p e d.a.*.N *.d.Z.; : B n r b R 1.b | A z d.a.u.}.d./ q.DXdXuX,X|.}.~.0.J.IX",
"JXF.@ @ V '   @ a , > , O - i v 6 X v i c = 2 k r 2 r 2.q.2.=.$.n k i.u.C.1.b u.i.# 9 @.b w w #.@.k &.| h A A.-X;X}.%.B K %.;X'.'.m.5.(.jXLX",
"JXJXE.` nXnX% % / / M , O = , 6 2 = c c h = < e ; ; < Y 3.3.i.=.x U 3.3.u.3.b Z.S.O O d 7 : w @.U x +.c h r 7 R 1.1.z | Y l o.u.p.w.j.0.$XFX",
"LXJXmXcXmXnXmXV g C M i a a v Z 6 = c c 2 = < < < : # / q.a.i.+.b U 3.2.2.3.I ;...# 7 w r ; e %.p b %.B : r t I I *.z | 1.X...u.v.N.:.9.zXKX",
"KXKXFXrXmXnXmXzXV / f + M q.=.q.%.M / M 4 X ; , i b p p @.i.q.| d ( 2.3.3.2.Y n : 7 r e 9 : x B m g ! g 7.^.1X;.N | N N | U *.y.v.:.) U.FXPX",
"LXKXKXrXmXnXmXFX} C 6 o o / %.-.g ~ g ) a O M _._.|.q.v r =.$.#.r U $.$.Y $...J 1 w r e e > 2 B d i t.CXgXhXaX1Xd.N N k N n k N P ) wXDXKXmX",
"LXLXKXrXKXnXnXmXzXC 5 $ $ V s C $ D 0.7.o + e i / q.d.d.x Y $.+.p #.#.| U | U B r e 3 2 i 2 2 v x 2.K ].7XT.~.m.d.2.3.%.C y a M M q.t.Q.0.8.",
"KXKXKXyXFXnXmXmXmXJ.  V %   y @ W dXhXfX].$ a = B _.d.`.=.r U B w =.#.n k b Y B i 3 > 2 v 2 2 B | z 1 5.1Xw.5.>.3.e.P.vXVX+X} H.$XKX7.V _ K.",
"LXE.G.+XvXxXxXnXvXvXvXnXjXV % 8.fXhXhXgX`.s.6 3 B Z =.d.|.s.@.9 p U $.#.k b | m M i C 4 - a v x | z | | i.3.5.r.:.! Y.DXnXnXnXnXKXKXbXJXKXmX",
"LXrXV } F.E.G.xXvXnXvXmXmX$Xu !./.U.Q.7X|.%.v 6 2 Z =.+.=.=.%.< U / 2.Y ; U n a v 6 M % s ! o 6 r N A z 3.e.<.^ W Y.nXnXbXDXvXvXmXKXrXKXLXLX",
"mXcXbXV ` G.E.xXvXnXnXmXmXmX$X-.:.%.-.q.Z > 6 > = / =.%.:.:.K 9 %.! K U e Y :.OXOX~ V K.mXnX' C 9 y h h U U ^ [ zXKXmXvXmXnXvXcXyXKXcXKXKXKX",
"oXJXLXSXmXmXbXnXvXnXFXmXmXmXY.@ 5 v s + 4 - 6 5 - ~ / ) %.^ $ g / r.t.) 0 ^ oXiXBXrXK.vXmXzXzXY.Y.Y.C 5 ' @XnXmXKXKXmXeXvXvXrXKXKX%XvXKXmXrX",
"KXLXKX|.FXnXnXnXnXnXnXnXnXFXbX& s 4 - % X   V 4 @ ~ Y.fXfXdX[ ~ K.hXCXdX/.(.7.9.0.P.P.8.$XzX+XQ V LXKXmXmXmXFXmXKXKXKXnXvXvXLXKXKXKXyXFXvX8X",
"JXLXKX|.FXnXnXnXnXbXbXvXnXnXFXF.o     4 F.jXs 4 % %XZXBX5XdXOXz.W.0X/.hXCXCX:X^ V _ V s _ _ V C L.LXKXJXmXmXmXFXmXFXFXKXKXeXKXKXKXJXZ.%X8XLX",
"LXJXLXoXFXnXnXvXDX$XG.Y.@X` AXJX` ` J.mXmXJXbXs K.eXOX`.t.q.3.:.:.Q.(.7X0X0XhX) C +XzXJXjXjXJXmXJXJXJXJXmXFXFXmXFXKXKXLXcXeXC.mXcX&XvXrXUXKX",
"KXLXLXS.KXnXnXnXDXQ * V & * $XVXDXrXLXKXJXJXJX&XK.s.i.Z e x 1.| ( S ].9XgXgXaXXXzXmXLXJXKXUXnXmXJXJXLXJXFXmXDXmXKXLXyXeXxXZ.mXcXKXLXFXvXUXFX",
"LXKXKXeXvXnXnXvXnXxXL.8.jXzXnXnXvXLXKXKXKXKXmX+X) U k = k j N *...( ( ].1X<Xk.) } &XmXS.nXvXLXKXUXKXKXFXFXFXFXLXrXrXrXFXKXKXFXnXKXKXFXeXKXKX",
"LXKXLXvXoX%XcXcXzX|.JXKXFXmXnXrXLXLXUXLXLXKXE.C Z i 2 2 = 1 l j l K K ^ 7.W.( u +XLXUXmXnXcXnXJXLXKXKXFXnXLXFXrXrXKXKXKXKXKXKXKXKXFXFXnXUXKX"
};
